<?xml version="1.0" encoding="utf-8"?>
<svg width="512" height="512" viewBox="0 0 512 512" fill="none" stroke="none" version="1.1" xmlns:xlink="http://www.w3.org/1999/xlink" xmlns="http://www.w3.org/2000/svg">
  <defs>
    <path id="path_1" d="M256 0C397.404 0 512 114.596 512 256L512 256C512 397.404 397.404 512 256 512L256 512C114.596 512 0 397.404 0 256L0 256C0 114.596 114.596 0 256 0Z" />
    <rect id="rect_2" x="0" y="0" width="512" height="512" />
    <clipPath id="clip_path_3">
      <use xlink:href="#rect_2" />
    </clipPath>
    <path id="path_4" d="M622 0L622 0L622 619L0 619L0 0L622 0Z" />
    <rect id="rect_5" x="0" y="0" width="622" height="619" />
    <clipPath id="clip_path_6">
      <use xlink:href="#rect_5" />
    </clipPath>
    <path id="path_7" d="M329 0L329 0L329 333L0 333L0 0L329 0Z" />
    <rect id="rect_8" x="0" y="0" width="329" height="333" />
    <clipPath id="clip_path_9">
      <use xlink:href="#rect_8" />
    </clipPath>
  </defs>
  <g id="Закладки" opacity="1" clip-path="url(#clip_path_3)">
    <g>
      <use xlink:href="#path_1" style="fill:#161616;fill-rule:evenodd;fill-opacity:0;mix-blend-mode:normal;" />
      <g>
        <path id="Фигура" d="M171.513 9.77639C227.083 -3.2588 284.916 -3.2588 340.488 9.77639C420.738 28.6009 483.401 91.2618 502.225 171.513C515.258 227.083 515.258 284.916 502.225 340.488C483.401 420.738 420.738 483.401 340.488 502.225C284.916 515.258 227.083 515.258 171.513 502.225C91.2618 483.401 28.6009 420.738 9.77639 340.488C-3.2588 284.916 -3.2588 227.083 9.77639 171.513C28.6009 91.2615 91.2615 28.6009 171.513 9.77639C171.513 9.77639 171.513 9.77639 171.513 9.77639Z" style="fill:#D8C39A;fill-rule:evenodd;mix-blend-mode:normal;" />
        <g id="icons8-utorrent-480" opacity="1" clip-path="url(#clip_path_6)" transform="translate(-47 -56)">
          <g>
            <use xlink:href="#path_4" style="mix-blend-mode:normal;" />
            <g>
              <path id="Путь" d="M259.167 515.833C401.916 515.833 518.333 399.977 518.333 257.917C518.333 115.869 401.916 0 259.167 0C116.418 0 0 115.869 0 257.917C7.62939e-06 399.977 116.418 515.833 259.167 515.833C259.167 515.833 259.167 515.833 259.167 515.833Z" style="fill:#D8C39A;fill-rule:evenodd;mix-blend-mode:normal;" transform="translate(45.367 53.195)" />
              <g id="icons8-youtube-480" opacity="1" clip-path="url(#clip_path_9)" transform="translate(140 145)">
                <g>
                  <use xlink:href="#path_7" style="mix-blend-mode:normal;" />
                  <g>
                    <path id="Путь" d="M164.111 4.8216C131.373 -1.6072 97.674 -1.6072 64.9371 4.8216C27.1889 12.2343 0 44.9544 0 82.9692C0 82.9692 0 248.946 0 248.946C0 278.074 32.0126 296.202 57.4616 281.486C57.4616 281.486 103.809 254.685 103.809 254.685C110.427 250.857 118.62 250.857 125.238 254.685C125.238 254.685 171.586 281.486 171.586 281.486C197.035 296.202 229.047 278.074 229.047 248.946C229.047 248.946 229.047 82.9692 229.047 82.9692C229.047 44.9544 201.858 12.2343 164.111 4.8216C164.111 4.8216 164.111 4.8216 164.111 4.8216Z" style="fill:#FFFFFF;mix-blend-mode:normal;" transform="translate(49 23)" />
                  </g>
                </g>
              </g>
            </g>
          </g>
        </g>
      </g>
    </g>
  </g>
</svg>