<?xml version="1.0" encoding="utf-8"?>
<svg width="512" height="512" viewBox="0 0 512 512" fill="none" stroke="none" version="1.1" xmlns:xlink="http://www.w3.org/1999/xlink" xmlns="http://www.w3.org/2000/svg">
  <defs>
    <path id="path_1" d="M256 0C397.404 0 512 114.596 512 256L512 256C512 397.404 397.404 512 256 512L256 512C114.596 512 0 397.404 0 256L0 256C0 114.596 114.596 0 256 0Z" />
    <rect id="rect_2" x="0" y="0" width="512" height="512" />
    <clipPath id="clip_path_3">
      <use xlink:href="#rect_2" />
    </clipPath>
    <path id="path_4" d="M622 0L622 0L622 619L0 619L0 0L622 0Z" />
    <rect id="rect_5" x="0" y="0" width="622" height="619" />
    <clipPath id="clip_path_6">
      <use xlink:href="#rect_5" />
    </clipPath>
    <radialGradient id="gradient_7" gradientUnits="userSpaceOnUse" cx="0" cy="0" r="1" gradientTransform="matrix(39.961 190.557 -202.121 42.386 206.508 134.355)">
      <stop offset="0" stop-color="#FFFFFF" />
      <stop offset="0" stop-color="#1BA1E3" />
      <stop offset="0.298" stop-color="#FFFFFF" />
      <stop offset="0.545" stop-color="#FFFFFF" />
      <stop offset="0.825" stop-color="#FFFFFF" />
      <stop offset="1" stop-color="#FFFFFF" />
    </radialGradient>
    <radialGradient id="gradient_8" gradientUnits="userSpaceOnUse" cx="0" cy="0" r="1" gradientTransform="matrix(39.703 192.266 -200.999 41.506 -4.49 -64.688)">
      <stop offset="0" stop-color="#FFFFFF" />
      <stop offset="0" stop-color="#1BA1E3" />
      <stop offset="0.303" stop-color="#FFFFFF" />
      <stop offset="0.545" stop-color="#FFFFFF" />
      <stop offset="0.825" stop-color="#FFFFFF" />
      <stop offset="0.978" stop-color="#FFFFFF" />
    </radialGradient>
  </defs>
  <g id="ИИ" opacity="1" clip-path="url(#clip_path_3)">
    <g>
      <use xlink:href="#path_1" style="fill:#161616;fill-rule:evenodd;fill-opacity:0;mix-blend-mode:normal;" />
      <g>
        <path id="Путь" d="M259.167 515.833C401.916 515.833 518.333 399.977 518.333 257.917C518.333 115.869 401.916 0 259.167 0C116.418 0 0 115.869 0 257.917C6.19888e-06 399.977 116.418 515.833 259.167 515.833C259.167 515.833 259.167 515.833 259.167 515.833Z" style="fill:#D8C39A;fill-rule:evenodd;mix-blend-mode:normal;" transform="translate(-1.633 -2.805)" />
        <g id="icons8-utorrent-480" opacity="1" clip-path="url(#clip_path_6)" transform="translate(-63 -73)">
          <g>
            <use xlink:href="#path_4" style="mix-blend-mode:normal;" />
            <g>
              <path id="Путь" d="M158.597 210.143C158.597 210.143 145.253 238.751 145.253 238.751C140.126 249.75 123.866 249.75 118.74 238.751C118.74 238.751 105.396 210.143 105.396 210.143C93.5175 184.684 72.146 164.415 45.4886 153.338C45.4886 153.338 8.76051 138.074 8.76051 138.074C-2.92017 133.226 -2.92017 117.322 8.76051 112.466C8.76051 112.466 44.3418 97.6785 44.3418 97.6785C71.6903 86.3176 93.4416 65.3021 105.115 38.9687C105.115 38.9687 118.633 8.48335 118.633 8.48335C123.646 -2.82779 140.347 -2.82779 145.367 8.48335C145.367 8.48335 158.885 38.9687 158.885 38.9687C170.558 65.295 192.317 86.3105 219.658 97.6785C219.658 97.6785 255.24 112.466 255.24 112.466C266.92 117.315 266.92 133.219 255.24 138.074C255.24 138.074 218.511 153.338 218.511 153.338C191.846 164.422 170.475 184.684 158.597 210.143C158.597 210.143 158.597 210.143 158.597 210.143Z" style="fill:url(#gradient_7);mix-blend-mode:normal;" transform="translate(179 186)" />
              <path id="Путь" d="M71.2938 102.413C71.2938 102.413 67.565 110.538 67.565 110.538C64.8326 116.487 56.1674 116.487 53.4425 110.538C53.4425 110.538 49.7137 102.413 49.7137 102.413C43.0638 87.9231 31.0926 76.3826 16.1473 70.074C16.1473 70.074 4.65909 65.2224 4.65909 65.2224C-1.55301 62.5956 -1.55301 54.012 4.65909 51.3853C4.65909 51.3853 15.5057 46.7992 15.5057 46.7992C30.8284 40.3255 43.0186 28.3615 49.5552 13.3761C49.5552 13.3761 53.3821 4.59146 53.3821 4.59146C56.0541 -1.53049 64.9534 -1.53049 67.6179 4.59146C67.6179 4.59146 71.4448 13.3761 71.4448 13.3761C77.9814 28.3615 90.1716 40.3255 105.494 46.7992C105.494 46.7992 116.341 51.3853 116.341 51.3853C122.553 54.012 122.553 62.5956 116.341 65.2224C116.341 65.2224 104.853 70.074 104.853 70.074C89.9149 76.3826 77.9436 87.9232 71.2938 102.413C71.2938 102.413 71.2938 102.413 71.2938 102.413Z" style="fill:url(#gradient_8);mix-blend-mode:normal;" transform="translate(376 338)" />
            </g>
          </g>
        </g>
      </g>
    </g>
  </g>
</svg>