<?xml version="1.0" encoding="utf-8"?>
<svg width="512" height="512" viewBox="0 0 512 512" fill="none" stroke="none" version="1.1" xmlns:xlink="http://www.w3.org/1999/xlink" xmlns="http://www.w3.org/2000/svg">
  <defs>
    <path id="path_1" d="M256 0C397.404 0 512 114.596 512 256L512 256C512 397.404 397.404 512 256 512L256 512C114.596 512 0 397.404 0 256L0 256C0 114.596 114.596 0 256 0Z" />
    <rect id="rect_2" x="0" y="0" width="512" height="512" />
    <clipPath id="clip_path_3">
      <use xlink:href="#rect_2" />
    </clipPath>
  </defs>
  <g id="Смотреть" opacity="1" clip-path="url(#clip_path_3)">
    <g>
      <use xlink:href="#path_1" style="fill:#161616;fill-rule:evenodd;fill-opacity:0;mix-blend-mode:normal;" />
      <g>
        <path id="Фигура" d="M171.513 9.77639C227.083 -3.2588 284.916 -3.2588 340.488 9.77639C420.738 28.6009 483.401 91.2618 502.225 171.513C515.258 227.083 515.258 284.916 502.225 340.488C483.401 420.738 420.738 483.401 340.488 502.225C284.916 515.258 227.083 515.258 171.513 502.225C91.2618 483.401 28.6009 420.738 9.77639 340.488C-3.2588 284.916 -3.2588 227.083 9.77639 171.513C28.6009 91.2615 91.2615 28.6009 171.513 9.77639C171.513 9.77639 171.513 9.77639 171.513 9.77639Z" style="fill:#D8C39A;fill-rule:evenodd;mix-blend-mode:normal;" transform="translate(0 0)" />
        <path id="Путь" d="M107.263 10.7294C83.1281 -4.57298 55.405 -2.544 34.4721 10.7294C13.7872 23.8457 0 47.5434 0 75.2608C0 75.2608 0 207.193 0 207.193C0 234.91 13.7872 258.609 34.4721 271.723C55.405 284.996 83.1281 287.026 107.263 271.723C107.263 271.723 211.291 205.761 211.291 205.761C234.905 190.784 245.759 165.23 245.759 141.227C245.759 117.223 234.905 91.6699 211.291 76.6926C211.291 76.6926 107.263 10.7294 107.263 10.7294C107.263 10.7294 107.263 10.7294 107.263 10.7294Z" style="fill:#FFFFFF;fill-rule:evenodd;mix-blend-mode:normal;" transform="translate(133 114)" />
      </g>
    </g>
  </g>
</svg>