<?xml version="1.0" encoding="utf-8"?>
<svg width="512" height="512" viewBox="0 0 512 512" fill="none" stroke="none" version="1.1" xmlns:xlink="http://www.w3.org/1999/xlink" xmlns="http://www.w3.org/2000/svg">
  <defs>
    <path id="path_1" d="M256 0C397.404 0 512 114.596 512 256L512 256C512 397.404 397.404 512 256 512L256 512C114.596 512 0 397.404 0 256L0 256C0 114.596 114.596 0 256 0Z" />
    <rect id="rect_2" x="0" y="0" width="512" height="512" />
    <clipPath id="clip_path_3">
      <use xlink:href="#rect_2" />
    </clipPath>
    <path id="path_4" d="M622 0L622 0L622 619L0 619L0 0L622 0Z" />
    <rect id="rect_5" x="0" y="0" width="622" height="619" />
    <clipPath id="clip_path_6">
      <use xlink:href="#rect_5" />
    </clipPath>
  </defs>
  <g id="Торрент" opacity="1" clip-path="url(#clip_path_3)">
    <g>
      <use xlink:href="#path_1" style="fill:#161616;fill-rule:evenodd;fill-opacity:0;mix-blend-mode:normal;" />
      <g>
        <path id="Фигура" d="M171.513 9.77639C227.083 -3.2588 284.916 -3.2588 340.488 9.77639C420.738 28.6009 483.401 91.2618 502.225 171.513C515.258 227.083 515.258 284.916 502.225 340.488C483.401 420.738 420.738 483.401 340.488 502.225C284.916 515.258 227.083 515.258 171.513 502.225C91.2618 483.401 28.6009 420.738 9.77639 340.488C-3.2588 284.916 -3.2588 227.083 9.77639 171.513C28.6009 91.2615 91.2615 28.6009 171.513 9.77639C171.513 9.77639 171.513 9.77639 171.513 9.77639Z" style="fill:#D8C39A;fill-rule:evenodd;mix-blend-mode:normal;" />
        <g id="icons8-utorrent-480" opacity="1" clip-path="url(#clip_path_6)" transform="translate(-47 -56)">
          <g>
            <use xlink:href="#path_4" style="mix-blend-mode:normal;" />
            <g>
              <path id="Путь" d="M259.167 515.833C401.916 515.833 518.333 399.977 518.333 257.917C518.333 115.869 401.916 0 259.167 0C116.418 0 0 115.869 0 257.917C7.62939e-06 399.977 116.418 515.833 259.167 515.833C259.167 515.833 259.167 515.833 259.167 515.833Z" style="fill:#D8C39A;fill-rule:evenodd;mix-blend-mode:normal;" transform="translate(45.367 53.195)" />
              <path id="Путь" d="M469.766 207.803C423.971 193.334 402.421 111.227 349.875 0C349.875 0 259.167 13.8888 259.167 13.8888C280.094 77.1429 372.954 231.467 268.6 257.014C179.149 280.123 137.008 122.755 103.667 38.6875C103.667 38.6875 0 64.4792 0 64.4792C0 64.4792 131.89 413.711 131.89 413.711C157.69 422.351 185.175 427.174 213.825 427.174C226.551 427.174 238.978 425.962 251.21 424.183C251.21 424.183 193.636 316.167 193.636 316.167C282.634 336.181 353.128 304.961 361.602 236.174C383.981 265.706 414.589 277.222 448.864 277.08C458.971 255.428 466.046 232.202 469.766 207.803C469.766 207.803 469.766 207.803 469.766 207.803Z" style="fill:#FFFFFF;fill-rule:evenodd;mix-blend-mode:normal;" transform="translate(90.708 141.854)" />
            </g>
          </g>
        </g>
      </g>
    </g>
  </g>
</svg>