<?xml version="1.0" encoding="utf-8"?>
<svg width="512" height="512" viewBox="0 0 512 512" fill="none" stroke="none" version="1.1" xmlns:xlink="http://www.w3.org/1999/xlink" xmlns="http://www.w3.org/2000/svg">
  <defs>
    <path id="path_1" d="M256 0C397.404 0 512 114.596 512 256L512 256C512 397.404 397.404 512 256 512L256 512C114.596 512 0 397.404 0 256L0 256C0 114.596 114.596 0 256 0Z" />
    <rect id="rect_2" x="0" y="0" width="512" height="512" />
    <clipPath id="clip_path_3">
      <use xlink:href="#rect_2" />
    </clipPath>
    <path id="path_4" d="M622 0L622 0L622 619L0 619L0 0L622 0Z" />
    <rect id="rect_5" x="0" y="0" width="622" height="619" />
    <clipPath id="clip_path_6">
      <use xlink:href="#rect_5" />
    </clipPath>
    <path id="path_7" d="M429 0L429 0L429 446L0 446L0 0L429 0Z" />
    <rect id="rect_8" x="0" y="0" width="429" height="446" />
    <clipPath id="clip_path_9">
      <use xlink:href="#rect_8" />
    </clipPath>
  </defs>
  <g id="Ютуб" opacity="1" clip-path="url(#clip_path_3)">
    <g>
      <use xlink:href="#path_1" style="fill:#161616;fill-rule:evenodd;fill-opacity:0;mix-blend-mode:normal;" />
      <g>
        <path id="Фигура" d="M171.513 9.77639C227.083 -3.2588 284.916 -3.2588 340.488 9.77639C420.738 28.6009 483.401 91.2618 502.225 171.513C515.258 227.083 515.258 284.916 502.225 340.488C483.401 420.738 420.738 483.401 340.488 502.225C284.916 515.258 227.083 515.258 171.513 502.225C91.2618 483.401 28.6009 420.738 9.77639 340.488C-3.2588 284.916 -3.2588 227.083 9.77639 171.513C28.6009 91.2615 91.2615 28.6009 171.513 9.77639C171.513 9.77639 171.513 9.77639 171.513 9.77639Z" style="fill:#D8C39A;fill-rule:evenodd;mix-blend-mode:normal;" />
        <g id="icons8-utorrent-480" opacity="1" clip-path="url(#clip_path_6)" transform="translate(-47 -56)">
          <g>
            <use xlink:href="#path_4" style="mix-blend-mode:normal;" />
            <g>
              <path id="Путь" d="M259.167 515.833C401.916 515.833 518.333 399.977 518.333 257.917C518.333 115.869 401.916 0 259.167 0C116.418 0 0 115.869 0 257.917C7.62939e-06 399.977 116.418 515.833 259.167 515.833C259.167 515.833 259.167 515.833 259.167 515.833Z" style="fill:#D8C39A;fill-rule:evenodd;mix-blend-mode:normal;" transform="translate(45.367 53.195)" />
              <g id="icons8-youtube-480" opacity="1" clip-path="url(#clip_path_9)" transform="translate(96 86)">
                <g>
                  <use xlink:href="#path_7" style="mix-blend-mode:normal;" />
                  <g>
                    <path id="Фигура" d="M305.173 16.9132C319.833 32.5928 321.75 57.5061 321.75 118.469C321.75 179.431 319.833 204.345 305.173 220.024C290.513 235.697 275.244 236.938 160.875 236.938C46.5063 236.938 31.2366 235.697 16.5768 220.024C1.9171 204.345 0 179.431 0 118.469C0 57.5061 1.9171 32.5928 16.5768 16.9132C31.2366 1.23347 46.5063 0 160.875 0C275.244 0 290.513 1.24044 305.173 16.9132C305.173 16.9132 305.173 16.9132 305.173 16.9132ZM133.727 170.156L215.143 121.11L133.727 72.8304L133.727 170.156L133.727 170.156Z" style="fill:#FFFFFF;mix-blend-mode:normal;" transform="translate(53.625 104.531)" />
                  </g>
                </g>
              </g>
            </g>
          </g>
        </g>
      </g>
    </g>
  </g>
</svg>